<?xml version="1.0" encoding="utf-8"?>
<!-- Generator: Adobe Illustrator 22.0.1, SVG Export Plug-In . SVG Version: 6.00 Build 0)  -->
<svg version="1.1" id="Layer_1" xmlns="http://www.w3.org/2000/svg" xmlns:xlink="http://www.w3.org/1999/xlink" x="0px" y="0px"
	 viewBox="0 0 1000 1000" style="enable-background:new 0 0 1000 1000;" xml:space="preserve">
<style type="text/css">
	.st0{opacity:0.34;fill:#353535;enable-background:new    ;}
	.st1{fill:#BD93F9;}
	.st2{fill:#D9CAEF;}
	.st3{fill:none;stroke:#3A3842;stroke-width:6;stroke-linecap:round;stroke-linejoin:round;stroke-miterlimit:10;}
	.st4{fill:#3A3842;}
	.st5{fill:#CAB5EA;}
	.st6{fill:#33313A;}
	.st7{fill:none;stroke:#3A3842;stroke-width:4;stroke-linecap:round;stroke-linejoin:round;stroke-miterlimit:10;}
	.st8{fill:#F26640;}
	.st9{fill:#5EB755;}
	.st10{fill:#6A82EA;}
	.st11{fill:#EFAD43;}
	.st12{fill:none;stroke:#FFFFFF;stroke-width:8;stroke-linecap:round;stroke-linejoin:round;stroke-miterlimit:10;}
	.st13{opacity:0.34;fill:#3A3842;enable-background:new    ;}
</style>
<path id="XMLID_74_" class="st0" d="M951.4,855.1H49c-20.6,0-37.3-16.7-37.3-37.3l0,0c0-20.6,16.7-37.3,37.3-37.3h902.2
	c20.6,0,37.3,16.7,37.3,37.3l0,0C988.7,838.4,972,855.1,951.4,855.1z"/>
<path id="XMLID_28_" class="st1" d="M250.3,545.9V153c0-13,10.6-23.6,23.6-23.6h432.2c13,0,23.6,10.6,23.6,23.6v392.9
	c0,13-10.6,23.6-23.6,23.6H273.9C260.7,569.4,250.3,558.8,250.3,545.9z"/>
<path id="XMLID_31_" class="st2" d="M266,527.6V158.3c0-5.5,4.3-9.8,9.8-9.8h428.2c5.5,0,9.8,4.3,9.8,9.8v369.3
	c0,5.5-4.3,9.8-9.8,9.8H275.9C270.4,537.4,266,532.9,266,527.6z"/>
<path id="XMLID_16_" class="st3" d="M250.3,545.9V153c0-13,10.6-23.6,23.6-23.6h432.2c13,0,23.6,10.6,23.6,23.6v392.9
	c0,13-10.6,23.6-23.6,23.6H273.9C260.7,569.4,250.3,558.8,250.3,545.9z"/>
<path id="XMLID_32_" class="st1" d="M285.7,472.6V185.8c0-7.7,6.1-13.8,13.8-13.8h381.1c7.7,0,13.8,6.1,13.8,13.8v286.8
	c0,7.7-6.1,13.8-13.8,13.8H299.4C291.8,486.3,285.7,480.2,285.7,472.6z"/>
<path id="XMLID_30_" class="st4" d="M342.7,468.7c-23.8,0-43.2-19.4-43.2-43.2V232.9c0-23.8,19.4-43.2,43.2-43.2h294.7
	c23.8,0,43.2,19.4,43.2,43.2v192.5c0,23.8-19.4,43.2-43.2,43.2H342.7z"/>
<path id="XMLID_8_" class="st2" d="M645.2,604.8H334.8c-8.6,0-15.7-7.1-15.7-15.7v-19.6h341.8v19.6
	C660.9,597.7,653.8,604.8,645.2,604.8z"/>
<rect id="XMLID_29_" x="319.1" y="569.4" class="st1" width="341.8" height="17.7"/>
<path id="XMLID_6_" class="st3" d="M645.2,604.8H334.8c-8.6,0-15.7-7.1-15.7-15.7v-19.6h341.8v19.6
	C660.9,597.7,653.8,604.8,645.2,604.8z"/>
<path id="XMLID_7_" class="st1" d="M827.9,793.4H152.1c-8.6,0-15.7-7.1-15.7-15.7V620.5c0-8.6,7.1-15.7,15.7-15.7h675.7
	c8.6,0,15.7,7.1,15.7,15.7v157.1C843.6,786.3,836.5,793.4,827.9,793.4z"/>
<path id="XMLID_4_" class="st3" d="M827.9,793.4H152.1c-8.6,0-15.7-7.1-15.7-15.7V620.5c0-8.6,7.1-15.7,15.7-15.7h675.7
	c8.6,0,15.7,7.1,15.7,15.7v157.1C843.6,786.3,836.5,793.4,827.9,793.4z"/>
<path id="XMLID_34_" class="st2" d="M160.8,761.9V636.2c0-8.6,7.1-15.7,15.7-15.7h626.8c8.6,0,15.7,7.1,15.7,15.7v125.7
	c0,8.6-7.1,15.7-15.7,15.7H176.5C167.8,777.7,160.8,770.6,160.8,761.9z"/>
<circle id="XMLID_37_" class="st5" cx="627.9" cy="511.1" r="14.7"/>
<circle id="XMLID_1_" class="st4" cx="627.9" cy="511.1" r="12.8"/>
<circle id="XMLID_39_" class="st6" cx="627.9" cy="511.1" r="11"/>
<g id="XMLID_24_">
</g>
<g id="XMLID_42_">
	<g id="XMLID_60_">
		<line id="XMLID_61_" class="st7" x1="374.7" y1="709.9" x2="374.7" y2="763.9"/>
	</g>
	<g id="XMLID_58_">
		<line id="XMLID_59_" class="st7" x1="355" y1="709.9" x2="355" y2="763.9"/>
	</g>
	<g id="XMLID_56_">
		<line id="XMLID_57_" class="st7" x1="335.4" y1="709.9" x2="335.4" y2="763.9"/>
	</g>
	<g id="XMLID_54_">
		<line id="XMLID_55_" class="st7" x1="315.7" y1="709.9" x2="315.7" y2="763.9"/>
	</g>
	<g id="XMLID_52_">
		<line id="XMLID_53_" class="st7" x1="296.1" y1="709.9" x2="296.1" y2="763.9"/>
	</g>
	<g id="XMLID_50_">
		<line id="XMLID_51_" class="st7" x1="276.5" y1="709.9" x2="276.5" y2="763.9"/>
	</g>
	<g id="XMLID_48_">
		<line id="XMLID_49_" class="st7" x1="256.8" y1="709.9" x2="256.8" y2="763.9"/>
	</g>
	<g id="XMLID_46_">
		<line id="XMLID_47_" class="st7" x1="237.2" y1="709.9" x2="237.2" y2="763.9"/>
	</g>
	<g id="XMLID_44_">
		<line id="XMLID_45_" class="st7" x1="217.5" y1="709.9" x2="217.5" y2="763.9"/>
	</g>
</g>
<g id="XMLID_38_">
	<rect id="XMLID_12_" x="207.1" y="644.9" class="st8" width="13.4" height="13.4"/>
	<rect id="XMLID_25_" x="223.2" y="644.9" class="st9" width="13.4" height="13.4"/>
	<rect id="XMLID_26_" x="207.1" y="660.4" class="st10" width="13.4" height="13.4"/>
	<rect id="XMLID_27_" x="223.2" y="660.4" class="st11" width="13.4" height="13.4"/>
</g>
<line id="XMLID_36_" class="st12" x1="411.8" y1="221.7" x2="520.4" y2="221.7"/>
<line id="XMLID_17_" class="st12" x1="348.9" y1="221.7" x2="380.4" y2="221.7"/>
<path id="XMLID_40_" class="st6" d="M637.3,189.7h-14.9c-9.2,125.5-113.9,224.5-241.8,224.5h-81.1v11.2c0,23.8,19.4,43.2,43.2,43.2
	h294.7c23.8,0,43.2-19.4,43.2-43.2V232.9C680.5,209.2,661.1,189.7,637.3,189.7z"/>
<rect id="XMLID_35_" x="243.1" y="651.3" class="st13" width="48.7" height="7.1"/>
<rect id="XMLID_41_" x="243.1" y="663.5" class="st13" width="24.4" height="3.7"/>
<rect id="XMLID_68_" x="295.9" y="765.3" class="st1" width="204.3" height="23.6"/>
<rect id="XMLID_67_" x="174.5" y="765.3" class="st1" width="39.3" height="23.6"/>
<rect id="XMLID_66_" x="235.2" y="765.3" class="st1" width="39.3" height="23.6"/>
<rect id="XMLID_65_" x="521.6" y="765.3" class="st1" width="39.3" height="23.6"/>
<rect id="XMLID_64_" x="582.3" y="765.3" class="st1" width="39.3" height="23.6"/>
<rect id="XMLID_63_" x="643.2" y="765.3" class="st1" width="39.3" height="23.6"/>
<rect id="XMLID_10_" x="295.9" y="765.3" class="st3" width="204.3" height="23.6"/>
<rect id="XMLID_19_" x="174.5" y="765.3" class="st3" width="39.3" height="23.6"/>
<rect id="XMLID_20_" x="235.2" y="765.3" class="st3" width="39.3" height="23.6"/>
<rect id="XMLID_21_" x="521.6" y="765.3" class="st3" width="39.3" height="23.6"/>
<rect id="XMLID_22_" x="582.3" y="765.3" class="st3" width="39.3" height="23.6"/>
<rect id="XMLID_23_" x="643.2" y="765.3" class="st3" width="39.3" height="23.6"/>
<path id="XMLID_62_" class="st2" d="M719.8,824.2H138.4c-4.3,0-7.9-3.5-7.9-7.9v-19.6c0-4.3,3.5-7.9,7.9-7.9h581.5
	c4.3,0,7.9,3.5,7.9,7.9v19.6C727.7,820.7,724.1,824.2,719.8,824.2z"/>
<path id="XMLID_15_" class="st3" d="M719.8,824.2H138.4c-4.3,0-7.9-3.5-7.9-7.9v-19.6c0-4.3,3.5-7.9,7.9-7.9h581.5
	c4.3,0,7.9,3.5,7.9,7.9v19.6C727.7,820.7,724.1,824.2,719.8,824.2z"/>
<path id="XMLID_71_" class="st2" d="M846.1,824.2h-73.3v-9.4c0-14.3,11.6-25.9,25.9-25.9h21.6c14.3,0,25.9,11.6,25.9,25.9v9.4H846.1
	z"/>
<path id="XMLID_70_" class="st3" d="M846.1,824.2h-73.3v-9.4c0-14.3,11.6-25.9,25.9-25.9h21.6c14.3,0,25.9,11.6,25.9,25.9v9.4H846.1
	z"/>
<g id="XMLID_72_">
	<path id="XMLID_14_" class="st1" d="M770.1,684.7H590.8c-1.4,0-2.8-1.2-2.8-2.8v-15.7c0-1.4,1.2-2.8,2.8-2.8h179.3
		c1.4,0,2.8,1.2,2.8,2.8V682C772.8,683.6,771.7,684.7,770.1,684.7z"/>
	<path id="XMLID_13_" class="st1" d="M703.7,692.6h-46.6c-1.4,0-2.4-1.2-2.4-2.4v-32c0-1.4,1.2-2.4,2.4-2.4h46.6
		c1.4,0,2.4,1.2,2.4,2.4v32C706.3,691.6,705.1,692.6,703.7,692.6z"/>
	<rect id="XMLID_9_" x="596.1" y="666.3" class="st4" width="168.9" height="15.7"/>
	<rect id="XMLID_11_" x="657" y="660.4" class="st4" width="47.1" height="27.5"/>
	<path id="XMLID_73_" class="st6" d="M600,674.1L600,674.1c0-2.2,1.8-3.9,3.9-3.9h153.2c2.2,0,3.9,1.8,3.9,3.9l0,0
		c0,2.2-1.8,3.9-3.9,3.9H603.9C601.8,678.1,600,676.3,600,674.1z"/>
</g>
<g id="XMLID_75_">
	<path id="XMLID_80_" class="st1" d="M770.1,734.4H590.8c-1.4,0-2.8-1.2-2.8-2.8V716c0-1.4,1.2-2.8,2.8-2.8h179.3
		c1.4,0,2.8,1.2,2.8,2.8v15.7C772.8,733.3,771.7,734.4,770.1,734.4z"/>
	<path id="XMLID_79_" class="st1" d="M703.7,742.5h-46.6c-1.4,0-2.4-1.2-2.4-2.4v-32c0-1.4,1.2-2.4,2.4-2.4h46.6
		c1.4,0,2.4,1.2,2.4,2.4v32C706.3,741.3,705.1,742.5,703.7,742.5z"/>
	<rect id="XMLID_78_" x="596.1" y="716.2" class="st4" width="168.9" height="15.7"/>
	<rect id="XMLID_77_" x="657" y="710.3" class="st4" width="47.1" height="27.5"/>
	<path id="XMLID_76_" class="st6" d="M600,724L600,724c0-2.2,1.8-3.9,3.9-3.9h153.2c2.2,0,3.9,1.8,3.9,3.9l0,0
		c0,2.2-1.8,3.9-3.9,3.9H603.9C601.8,728,600,726.2,600,724z"/>
</g>
</svg>
